<svg width="25" height="25" viewBox="0 0 25 25" fill="none" xmlns="http://www.w3.org/2000/svg">
<path d="M15.0191 5.71868C14.5232 5.62707 14.0678 5.94352 13.9734 6.42757C13.879 6.91161 14.1964 7.3842 14.6788 7.47893C16.1312 7.76207 17.2526 8.88629 17.5369 10.3436V10.3447C17.6178 10.7642 17.9871 11.0692 18.4124 11.0692C18.4695 11.0692 18.5265 11.064 18.5846 11.0536C19.067 10.9567 19.3845 10.4852 19.2901 10.0001C18.8658 7.82348 17.1904 6.14234 15.0191 5.71868Z" fill="#0056BC"/>
<path d="M14.9547 2.09159C14.7223 2.05828 14.4889 2.12698 14.3032 2.2748C14.1123 2.42469 13.993 2.64121 13.9671 2.88375C13.9121 3.37404 14.2658 3.81749 14.7555 3.87266C18.1322 4.24948 20.7568 6.87997 21.1365 10.2672C21.1873 10.7211 21.5681 11.0636 22.0225 11.0636C22.0567 11.0636 22.0899 11.0615 22.1241 11.0573C22.3617 11.0313 22.5733 10.9137 22.7227 10.7263C22.871 10.5389 22.9385 10.3057 22.9115 10.0674C22.4384 5.8411 19.1675 2.56106 14.9547 2.09159Z" fill="#0056BC"/>
<path fill-rule="evenodd" clip-rule="evenodd" d="M11.4913 13.5129C15.6466 17.667 16.5893 12.8612 19.235 15.505C21.7856 18.055 23.2516 18.5658 20.02 21.7966C19.6152 22.1219 17.0433 26.0357 8.00471 16.9997C-1.03496 7.9625 2.87657 5.38796 3.20197 4.98328C6.44145 1.74359 6.94353 3.21811 9.49418 5.76805C12.1399 8.41302 7.33602 9.35877 11.4913 13.5129Z" fill="#0056BC"/>
</svg>
