<svg width="18" height="18" viewBox="0 0 14 14" fill="none" xmlns="http://www.w3.org/2000/svg">
<rect width="14" height="14" rx="2" fill="#085078"/>
<g clip-path="url(#clip0_265_14)">
<path d="M5.26719 11.9835C5.22445 11.9835 5.18246 11.9723 5.14537 11.9511C5.10829 11.9299 5.0774 11.8993 5.05576 11.8624C4.24118 10.4747 2.06949 7.51971 2.04767 7.49002C2.01279 7.4426 1.99613 7.3842 2.00076 7.32551C2.00538 7.26681 2.03097 7.21174 2.07285 7.17036L2.74064 6.51045C2.78142 6.47014 2.83504 6.44541 2.89217 6.44055C2.9493 6.43569 3.00633 6.45101 3.05334 6.48385L5.21617 7.99402C6.66344 6.13817 8.00778 4.856 8.89222 4.09942C9.88795 3.24779 10.5218 2.86438 10.5483 2.84859C10.5864 2.82573 10.63 2.81366 10.6745 2.81366H11.7548C11.8045 2.81366 11.8531 2.82876 11.894 2.85697C11.9349 2.88517 11.9663 2.92515 11.984 2.9716C12.0016 3.01805 12.0048 3.06877 11.993 3.11705C11.9812 3.16533 11.955 3.20888 11.9179 3.24193C8.84988 5.97455 5.51355 11.8011 5.4802 11.8597C5.45892 11.897 5.42818 11.9281 5.39107 11.9499C5.35396 11.9716 5.31178 11.9832 5.26878 11.9835L5.26719 11.9835Z" fill="white"/>
</g>
<defs>
<clipPath id="clip0_265_14">
<rect width="10" height="10" fill="white" transform="translate(2 2)"/>
</clipPath>
</defs>
</svg>
