<svg width="22" height="22" viewBox="0 0 22 22" fill="none" xmlns="http://www.w3.org/2000/svg">
<path d="M21.8358 10.2492C20.9502 8.32856 19.653 6.62614 18.0362 5.26258L20.8156 2.48324L19.5185 1.18524L16.4999 4.20108C14.8291 3.23465 12.9299 2.73358 10.9999 2.74999C4.12488 2.74999 0.968799 8.48924 0.163965 10.2492C0.0559254 10.4851 0 10.7415 0 11.0009C0 11.2603 0.0559254 11.5167 0.163965 11.7526C1.04959 13.6733 2.34675 15.3757 3.96355 16.7392L1.18513 19.5186L2.4813 20.8147L5.49989 17.7989C7.17064 18.7653 9.06983 19.2664 10.9999 19.25C17.8749 19.25 21.031 13.5107 21.8358 11.7507C21.9436 11.5151 21.9995 11.2591 21.9995 11C21.9995 10.7409 21.9436 10.4848 21.8358 10.2492ZM5.49989 11C5.49815 9.99038 5.77481 8.99983 6.29945 8.13724C6.8241 7.27465 7.57642 6.5734 8.47371 6.1106C9.371 5.64779 10.3785 5.44133 11.3855 5.51393C12.3925 5.58652 13.36 5.93535 14.1816 6.52207L12.8506 7.85308C12.2919 7.51611 11.6524 7.33652 10.9999 7.33332C10.0274 7.33332 9.0948 7.71963 8.40716 8.40727C7.71953 9.0949 7.33322 10.0275 7.33322 11C7.33641 11.6525 7.516 12.292 7.85297 12.8507L6.52197 14.1817C5.85736 13.2539 5.49994 12.1413 5.49989 11ZM10.9999 16.5C9.85859 16.4999 8.74596 16.1425 7.81814 15.4779L9.14914 14.1469C9.7079 14.4839 10.3474 14.6635 10.9999 14.6667C11.9724 14.6667 12.905 14.2803 13.5926 13.5927C14.2802 12.9051 14.6666 11.9725 14.6666 11C14.6634 10.3475 14.4838 9.708 14.1468 9.14924L15.4778 7.81824C16.0645 8.63987 16.4134 9.60736 16.486 10.6144C16.5586 11.6214 16.3521 12.6289 15.8893 13.5262C15.4265 14.4235 14.7252 15.1758 13.8626 15.7004C13 16.2251 12.0095 16.5017 10.9999 16.5Z" fill="#5E5E5E"/>
</svg>
