<svg width="22" height="22" viewBox="0 0 22 22" fill="none" xmlns="http://www.w3.org/2000/svg">
<g clip-path="url(#clip0_178_456)">
<path d="M5.917 17.4167L1.83325 20.625V3.66667C1.83325 3.42355 1.92983 3.19039 2.10174 3.01849C2.27365 2.84658 2.5068 2.75 2.74992 2.75H19.2499C19.493 2.75 19.7262 2.84658 19.8981 3.01849C20.07 3.19039 20.1666 3.42355 20.1666 3.66667V16.5C20.1666 16.7431 20.07 16.9763 19.8981 17.1482C19.7262 17.3201 19.493 17.4167 19.2499 17.4167H5.917ZM10.0833 12.8333V14.6667H11.9166V12.8333H10.0833ZM7.853 8.07858L9.6515 8.43883C9.70254 8.18348 9.82504 7.94787 10.0048 7.75941C10.1845 7.57096 10.414 7.43741 10.6666 7.37431C10.9193 7.31121 11.1847 7.32115 11.4319 7.40297C11.6791 7.48479 11.898 7.63513 12.0631 7.8365C12.2282 8.03787 12.3327 8.28198 12.3645 8.54044C12.3963 8.7989 12.3541 9.06107 12.2427 9.29645C12.1313 9.53183 11.9554 9.73075 11.7354 9.87005C11.5154 10.0094 11.2603 10.0833 10.9999 10.0833H10.0833V11.9167H10.9999C11.6075 11.9165 12.2025 11.7438 12.7157 11.4187C13.2289 11.0936 13.6393 10.6295 13.8991 10.0803C14.1589 9.53109 14.2574 8.91943 14.1832 8.31644C14.109 7.71345 13.8651 7.14392 13.4799 6.67412C13.0947 6.20431 12.584 5.85353 12.0073 5.66258C11.4305 5.47164 10.8114 5.44837 10.222 5.5955C9.63251 5.74263 9.09695 6.05409 8.67757 6.49367C8.2582 6.93325 7.97225 7.48286 7.853 8.07858Z" fill="#0056BC"/>
</g>
<defs>
<clipPath id="clip0_178_456">
<rect width="22" height="22" fill="white"/>
</clipPath>
</defs>
</svg>
