<svg width="25" height="25" viewBox="0 0 25 25" fill="none" xmlns="http://www.w3.org/2000/svg">
<g clip-path="url(#clip0_175_451)">
<path d="M12.5 21.875C17.6777 21.875 21.875 17.6777 21.875 12.5C21.875 7.32233 17.6777 3.125 12.5 3.125C7.32233 3.125 3.125 7.32233 3.125 12.5C3.125 17.6777 7.32233 21.875 12.5 21.875Z" fill="#0056BC" stroke="#0056BC" stroke-width="1.75" stroke-linecap="round" stroke-linejoin="round"/>
<path d="M12.5 17.7083V17.72" stroke="white" stroke-width="1.75" stroke-linecap="round" stroke-linejoin="round"/>
<path d="M12.5001 14.0625C12.4809 13.7243 12.5721 13.3891 12.76 13.1073C12.9479 12.8255 13.2222 12.6124 13.5417 12.5C13.9333 12.3503 14.2847 12.1117 14.5684 11.8031C14.852 11.4944 15.0602 11.1242 15.1765 10.7214C15.2927 10.3187 15.3139 9.89447 15.2383 9.48215C15.1628 9.06983 14.9925 8.68068 14.741 8.34533C14.4895 8.00998 14.1636 7.73759 13.7889 7.5496C13.4143 7.36162 13.0011 7.26317 12.5819 7.262C12.1627 7.26084 11.749 7.357 11.3733 7.5429C10.9975 7.72881 10.6701 7.99938 10.4167 8.33333" stroke="white" stroke-width="1.75" stroke-linecap="round" stroke-linejoin="round"/>
</g>
<defs>
<clipPath id="clip0_175_451">
<rect width="25" height="25" fill="white"/>
</clipPath>
</defs>
</svg>
