<svg width="72" height="74" viewBox="0 0 72 74" fill="none" xmlns="http://www.w3.org/2000/svg">
<g filter="url(#filter0_d_408_5)">
<path d="M39 11.0415C43.3316 8.54059 48.6684 8.54059 53 11.0415L64.1147 17.4585C68.4464 19.9594 71.1147 24.5812 71.1147 29.5829V42.4171C71.1147 47.4188 68.4464 52.0406 64.1147 54.5415L53 60.9585C48.6684 63.4594 43.3316 63.4594 39 60.9585L27.8853 54.5415C23.5536 52.0406 20.8853 47.4188 20.8853 42.4171V29.5829C20.8853 24.5812 23.5536 19.9594 27.8853 17.4585L39 11.0415Z" fill="url(#paint0_linear_408_5)"/>
<path d="M40 12.7735C43.7128 10.6299 48.2872 10.6299 52 12.7735L63.1147 19.1906C66.8275 21.3342 69.1147 25.2957 69.1147 29.5829V42.4171C69.1147 46.7043 66.8276 50.6658 63.1147 52.8094L52 59.2265C48.2872 61.3701 43.7128 61.3701 40 59.2265L28.8853 52.8094C25.1725 50.6658 22.8853 46.7043 22.8853 42.4171V29.5829C22.8853 25.2957 25.1725 21.3342 28.8853 19.1906L40 12.7735Z" stroke="url(#paint1_linear_408_5)" stroke-opacity="0.19" stroke-width="4"/>
</g>
<path fill-rule="evenodd" clip-rule="evenodd" d="M47.7168 39.2913C48.9208 39.2913 49.9008 40.2643 49.9008 41.4603V44.5363C49.9008 44.7933 50.1068 44.9993 50.3708 45.0053H52.2768C53.7788 45.0053 54.9998 43.7993 54.9998 42.3173V33.5933C54.9928 33.0833 54.7498 32.6033 54.3328 32.2843L47.7398 27.0263C46.8548 26.3253 45.6168 26.3253 44.7288 27.0283L38.1808 32.2823C37.7478 32.6113 37.5048 33.0913 37.4998 33.6103V42.3173C37.4998 43.7993 38.7208 45.0053 40.2228 45.0053H42.1468C42.4178 45.0053 42.6378 44.7903 42.6378 44.5263C42.6378 44.4683 42.6448 44.4103 42.6568 44.3553V41.4603C42.6568 40.2713 43.6308 39.2993 44.8258 39.2913H47.7168ZM52.2768 46.5053H50.3528C49.2508 46.4793 48.4008 45.6143 48.4008 44.5363V41.4603C48.4008 41.0913 48.0938 40.7913 47.7168 40.7913H44.8308C44.4618 40.7933 44.1568 41.0943 44.1568 41.4603V44.5263C44.1568 44.6013 44.1468 44.6733 44.1258 44.7413C44.0178 45.7313 43.1718 46.5053 42.1468 46.5053H40.2228C37.8938 46.5053 35.9998 44.6263 35.9998 42.3173V33.6033C36.0098 32.6093 36.4678 31.6993 37.2588 31.1003L43.7938 25.8553C45.2328 24.7153 47.2378 24.7153 48.6738 25.8533L55.2558 31.1033C56.0288 31.6923 56.4868 32.6003 56.4998 33.5823V42.3173C56.4998 44.6263 54.6058 46.5053 52.2768 46.5053Z" fill="white"/>
<defs>
<filter id="filter0_d_408_5" x="0.885254" y="0.165833" width="90.2295" height="93.6683" filterUnits="userSpaceOnUse" color-interpolation-filters="sRGB">
<feFlood flood-opacity="0" result="BackgroundImageFix"/>
<feColorMatrix in="SourceAlpha" type="matrix" values="0 0 0 0 0 0 0 0 0 0 0 0 0 0 0 0 0 0 127 0" result="hardAlpha"/>
<feOffset dy="11"/>
<feGaussianBlur stdDeviation="10"/>
<feComposite in2="hardAlpha" operator="out"/>
<feColorMatrix type="matrix" values="0 0 0 0 0.12549 0 0 0 0 0.392157 0 0 0 0 0.980392 0 0 0 0.36 0"/>
<feBlend mode="normal" in2="BackgroundImageFix" result="effect1_dropShadow_408_5"/>
<feBlend mode="normal" in="SourceGraphic" in2="effect1_dropShadow_408_5" result="shape"/>
</filter>
<linearGradient id="paint0_linear_408_5" x1="17" y1="2.66805" x2="78.0601" y2="47.7284" gradientUnits="userSpaceOnUse">
<stop stop-color="#0056BC"/>
<stop offset="1" stop-color="#0F79F5"/>
</linearGradient>
<linearGradient id="paint1_linear_408_5" x1="46" y1="7" x2="46" y2="65" gradientUnits="userSpaceOnUse">
<stop stop-color="white" stop-opacity="0.54"/>
<stop offset="1" stop-color="white" stop-opacity="0"/>
</linearGradient>
</defs>
</svg>
