<svg width="27" height="27" viewBox="0 0 27 27" fill="none" xmlns="http://www.w3.org/2000/svg">
  <g clip-path="url(#clip0_399_298)">
  <path fill-rule="evenodd" clip-rule="evenodd" d="M13.3062 22.6998V24.0453C13.3062 25.1244 12.7685 26.0559 11.8339 26.5954C11.3843 26.855 10.8825 26.9998 10.3622 27.0001C9.84148 27.0003 9.33982 26.8552 8.88989 26.5954L2.90686 23.1411C1.97225 22.6015 1.43457 21.6702 1.43457 20.591V2.94458C1.43457 1.32084 2.75546 0 4.37915 0H17.5559C19.1797 0 20.5007 1.32073 20.5007 2.94458V6.66441C20.5007 7.19803 20.0675 7.6313 19.5339 7.6313C19.0001 7.6313 18.5672 7.19808 18.5672 6.66441V2.94458C18.5672 2.38702 18.1135 1.93335 17.5559 1.93335H6.00965L11.8339 5.29659C12.7681 5.83606 13.3062 6.76735 13.3062 7.84614V20.7662H17.5559C18.1135 20.7662 18.5672 20.3128 18.5672 19.7552V16.4943C18.5672 15.9603 18.9998 15.5274 19.5339 15.5274C20.0677 15.5274 20.5007 15.9604 20.5007 16.4943V19.7552C20.5007 21.379 19.1797 22.6998 17.5559 22.6998H13.3062ZM22.2649 12.3165L21.2002 13.3813C20.8226 13.7588 20.8227 14.3709 21.2002 14.7484C21.3819 14.9303 21.6268 15.0313 21.8837 15.0313C22.141 15.0313 22.3856 14.9305 22.5676 14.7484L25.2823 12.0332C25.6597 11.6558 25.6598 11.0441 25.2823 10.6666L22.5676 7.95182C22.19 7.57424 21.5779 7.5744 21.2002 7.95176C20.8228 8.32892 20.8229 8.94122 21.2002 9.31848L22.2649 10.383H15.1321C14.5979 10.383 14.1654 10.8158 14.1654 11.3499C14.1654 11.884 14.598 12.3166 15.1321 12.3166H22.2649V12.3165Z" fill="#0056BC"/>
  </g>
  <defs>
  <clipPath id="clip0_399_298">
  <rect width="27" height="27" fill="white"/>
  </clipPath>
  </defs>
  </svg>
