<svg width="297" height="265" viewBox="0 0 297 265" fill="none" xmlns="http://www.w3.org/2000/svg">
<g clip-path="url(#clip0_546_19)">
<path d="M59.5299 250.45V264.22H56.9099L50.0499 255.86V264.22H46.8999V250.45H49.5399L56.3799 258.81V250.45H59.5299Z" fill="white"/>
<path d="M62.9199 257.34C62.9199 253.25 66.1099 250.22 70.4499 250.22C74.7899 250.22 77.9799 253.23 77.9799 257.34C77.9799 261.45 74.7699 264.46 70.4499 264.46C66.1299 264.46 62.9199 261.43 62.9199 257.34ZM74.7599 257.34C74.7599 254.72 72.9099 252.93 70.4499 252.93C67.9899 252.93 66.1399 254.72 66.1399 257.34C66.1399 259.96 67.9899 261.75 70.4499 261.75C72.9099 261.75 74.7599 259.96 74.7599 257.34Z" fill="white"/>
<path d="M87.0601 257.34C87.0601 253.19 90.2501 250.22 94.5301 250.22C96.9101 250.22 98.9001 251.09 100.19 252.66L98.1401 254.55C97.2201 253.49 96.0601 252.94 94.6801 252.94C92.1001 252.94 90.2701 254.75 90.2701 257.35C90.2701 259.95 92.1001 261.76 94.6801 261.76C96.0601 261.76 97.2201 261.21 98.1401 260.13L100.19 262.02C98.8901 263.61 96.9101 264.48 94.5101 264.48C90.2401 264.48 87.0601 261.51 87.0601 257.36V257.34Z" fill="white"/>
<path d="M102.18 257.34C102.18 253.25 105.37 250.22 109.71 250.22C114.05 250.22 117.24 253.23 117.24 257.34C117.24 261.45 114.03 264.46 109.71 264.46C105.39 264.46 102.18 261.43 102.18 257.34ZM114.02 257.34C114.02 254.72 112.17 252.93 109.71 252.93C107.25 252.93 105.4 254.72 105.4 257.34C105.4 259.96 107.25 261.75 109.71 261.75C112.17 261.75 114.02 259.96 114.02 257.34Z" fill="white"/>
<path d="M133.26 250.45V264.22H130.64L123.78 255.86V264.22H120.63V250.45H123.27L130.11 258.81V250.45H133.26Z" fill="white"/>
<path d="M150.14 250.45V264.22H147.52L140.66 255.86V264.22H137.51V250.45H140.15L146.99 258.81V250.45H150.14Z" fill="white"/>
<path d="M165.06 261.66V264.22H154.4V250.45H164.8V253.01H157.56V256H163.95V258.48H157.56V261.67H165.05L165.06 261.66Z" fill="white"/>
<path d="M167.68 257.34C167.68 253.19 170.87 250.22 175.15 250.22C177.53 250.22 179.52 251.09 180.81 252.66L178.76 254.55C177.84 253.49 176.68 252.94 175.3 252.94C172.72 252.94 170.89 254.75 170.89 257.35C170.89 259.95 172.72 261.76 175.3 261.76C176.68 261.76 177.84 261.21 178.76 260.13L180.81 262.02C179.51 263.61 177.53 264.48 175.13 264.48C170.86 264.48 167.68 261.51 167.68 257.36V257.34Z" fill="white"/>
<path d="M186.66 253.05H182.25V250.45H194.25V253.05H189.84V264.22H186.65V253.05H186.66Z" fill="white"/>
<path d="M196.95 250.45H200.14V264.22H196.95V250.45Z" fill="white"/>
<path d="M203.53 257.34C203.53 253.25 206.72 250.22 211.06 250.22C215.4 250.22 218.59 253.23 218.59 257.34C218.59 261.45 215.38 264.46 211.06 264.46C206.74 264.46 203.53 261.43 203.53 257.34ZM215.37 257.34C215.37 254.72 213.52 252.93 211.06 252.93C208.6 252.93 206.75 254.72 206.75 257.34C206.75 259.96 208.6 261.75 211.06 261.75C213.52 261.75 215.37 259.96 215.37 257.34Z" fill="white"/>
<path d="M234.61 250.45V264.22H231.99L225.13 255.86V264.22H221.98V250.45H224.62L231.46 258.81V250.45H234.61Z" fill="white"/>
<path d="M132.81 45.44C121.2 46.18 109.24 46.22 96.7798 44.4C94.3798 44.01 91.9698 43.55 89.5698 43C84.7698 41.9 79.9798 40.45 75.2098 38.51C72.5998 37.37 69.9298 36.43 67.2098 35.74C64.4798 35.05 61.6998 34.6 58.8998 34.42C38.9298 33.04 19.5398 45.08 16.6198 64.52C15.1898 80.97 21.2298 97.39 23.6998 114.2C23.4998 117.48 23.0298 120.76 22.2898 124.03C21.5498 127.3 20.5198 130.56 19.1298 133.81C18.0498 136.57 16.8198 139.31 15.5398 142.04C10.4398 152.96 4.69978 163.66 1.40978 174.57C0.759779 176.9 0.319779 179.26 0.119779 181.64C-0.280221 186.41 0.29978 191.26 2.18978 196.11C11.2298 215.51 32.2098 228.88 54.7298 228.88C57.7098 229.15 60.7098 229.31 63.7198 229.41C66.2498 229.36 68.7198 229.07 71.1598 228.6C83.3198 226.23 94.4898 219.22 105.5 213.97C118.82 207.62 133.94 205.05 148.61 204.6C164.84 204.1 180.84 209.44 196.63 212.81C199.3 213.38 202.01 213.9 204.76 214.41C232.51 223.62 281.85 224.93 288.2 186.16C288.34 183.25 288.01 180.37 287.37 177.52C284.78 166.14 277.11 155.26 274.1 144.47C273.13 141.55 272.32 138.63 271.62 135.69C268.14 121.01 267.7 105.63 269.74 91.07C270.07 88.01 270.45 84.99 270.81 81.98C271.9 72.96 272.79 64 272.34 55.25C272.1 52.99 271.68 50.77 271.04 48.59C270.4 46.42 269.54 44.29 268.4 42.24C267.31 39.82 265.98 37.52 264.37 35.4C261.16 31.15 256.87 27.59 251.28 25.09C248.91 24.06 246.48 23.22 243.99 22.53C231.57 19.1 217.94 19.62 204.96 20.91C201.91 21.21 198.89 21.64 195.9 22.21C188.6 23.82 181.73 26.31 174.98 29.22C172.73 30.19 170.5 31.2 168.26 32.23C160.02 37.05 149.57 41.57 140.86 44.24C138.5 44.69 135.82 45.08 132.8 45.43L132.81 45.44Z" fill="#1E191A"/>
<path d="M252.42 113.85C250.76 115.98 248.28 117.09 245.78 117.09C243.97 117.09 242.14 116.51 240.6 115.31C218.05 97.69 191.92 86.6 164.03 82.65C156.4 81.57 148.62 81.01 140.75 81.01C132.88 81.01 125.11 81.56 117.47 82.65C89.5698 86.6 63.4498 97.7 40.8998 115.31C37.2398 118.17 31.9498 117.51 29.0898 113.85C26.2198 110.19 26.8698 104.9 30.5398 102.04C55.8898 82.25 85.2998 69.92 116.7 65.76C124.59 64.7 132.63 64.17 140.75 64.17C148.87 64.17 156.89 64.7 164.8 65.76C196.2 69.92 225.63 82.25 250.96 102.04C254.62 104.9 255.27 110.19 252.41 113.85H252.42Z" fill="#EE1D23"/>
<path d="M227.7 146.76C226.04 148.86 223.58 149.97 221.09 149.97C219.26 149.97 217.43 149.38 215.89 148.16C200 135.62 181.72 127.42 162.15 124C155.16 122.77 148.01 122.14 140.76 122.14C133.51 122.14 126.36 122.77 119.37 124C99.7998 127.42 81.5198 135.62 65.6298 148.16C61.9798 151.03 56.6898 150.41 53.8098 146.76C50.9398 143.12 51.5598 137.82 55.2098 134.94C73.9098 120.18 95.4998 110.73 118.61 107.06C125.86 105.89 133.27 105.31 140.77 105.31C148.27 105.31 155.68 105.89 162.93 107.06C186.02 110.72 207.63 120.18 226.33 134.94C229.98 137.82 230.6 143.12 227.72 146.76H227.7Z" fill="#EE1D23"/>
<path d="M201.44 181.92C198.52 185.53 193.22 186.09 189.6 183.15C180.7 175.93 170.3 170.81 159.27 168.09C153.24 166.6 147.03 165.84 140.76 165.84C134.49 165.84 128.27 166.61 122.25 168.09C111.22 170.81 100.82 175.93 91.9198 183.15C90.3598 184.42 88.4798 185.03 86.6198 185.03C84.1798 185.03 81.7498 183.97 80.0898 181.92C77.1598 178.31 77.7098 173.01 81.3198 170.08C92.7898 160.77 106.31 154.34 120.62 151.21C127.21 149.76 133.97 149.02 140.77 149.02C147.57 149.02 154.33 149.76 160.92 151.21C175.22 154.35 188.75 160.78 200.22 170.08C203.82 173 204.38 178.3 201.45 181.92H201.44Z" fill="#EE1D23"/>
<path d="M140.75 222.71C150.249 222.71 157.95 215.009 157.95 205.51C157.95 196.011 150.249 188.31 140.75 188.31C131.251 188.31 123.55 196.011 123.55 205.51C123.55 215.009 131.251 222.71 140.75 222.71Z" fill="#EE1D23"/>
<path d="M140.75 176.06C132.94 176.06 126.51 169.92 126.15 162.11L120.22 32.65C119.68 20.94 129.03 11.16 140.75 11.16C152.47 11.16 161.82 20.95 161.28 32.65L155.35 162.11C154.99 169.91 148.56 176.06 140.75 176.06Z" fill="url(#paint0_linear_546_19)"/>
<path style="mix-blend-mode:multiply" d="M140.76 149.02C147.56 149.02 154.32 149.76 160.91 151.21L160.39 162.35C160.3 164.36 159.91 166.29 159.27 168.09C153.24 166.6 147.03 165.84 140.76 165.84C134.49 165.84 128.27 166.61 122.25 168.09C121.61 166.29 121.22 164.36 121.13 162.35L120.61 151.21C127.2 149.76 133.96 149.02 140.76 149.02Z" fill="url(#paint1_linear_546_19)"/>
<path style="mix-blend-mode:multiply" d="M140.76 105.31C148.26 105.31 155.67 105.89 162.92 107.06L162.15 124C155.16 122.77 148.01 122.14 140.76 122.14C133.51 122.14 126.36 122.77 119.37 124L118.6 107.06C125.85 105.89 133.26 105.31 140.76 105.31Z" fill="url(#paint2_linear_546_19)"/>
<path style="mix-blend-mode:multiply" d="M164.81 65.76L164.04 82.65C156.41 81.57 148.63 81.01 140.76 81.01C132.89 81.01 125.12 81.56 117.48 82.65L116.71 65.76C124.6 64.7 132.64 64.17 140.76 64.17C148.88 64.17 156.9 64.7 164.81 65.76Z" fill="url(#paint3_linear_546_19)"/>
<path d="M140.75 176.06C132.94 176.06 126.51 169.92 126.15 162.11L120.22 32.65C119.68 20.94 129.03 11.16 140.75 11.16C152.47 11.16 161.82 20.95 161.28 32.65L155.35 162.11C154.99 169.91 148.56 176.06 140.75 176.06Z" fill="url(#paint4_linear_546_19)"/>
<path d="M85.1996 0.309995L68.8496 28.62C68.6096 29.04 68.9096 29.56 69.3896 29.56H102.08C102.56 29.56 102.86 29.04 102.62 28.62L86.2796 0.309995C86.0396 -0.110005 85.4396 -0.110005 85.1996 0.309995Z" fill="#1E191A"/>
<path d="M85.7394 25.56C86.4574 25.56 87.0395 24.9779 87.0395 24.26C87.0395 23.542 86.4574 22.96 85.7394 22.96C85.0215 22.96 84.4395 23.542 84.4395 24.26C84.4395 24.9779 85.0215 25.56 85.7394 25.56Z" fill="#231F20"/>
<path d="M85.7396 21.7C85.1496 21.7 84.6696 21.24 84.6396 20.65L84.1896 10.89C84.1496 10.01 84.8496 9.27002 85.7396 9.27002C86.6196 9.27002 87.3296 10.01 87.2896 10.89L86.8396 20.65C86.8096 21.24 86.3296 21.7 85.7396 21.7Z" fill="#231F20"/>
<path d="M162.164 213.352C164.018 201.523 155.932 190.43 144.103 188.575C132.274 186.721 121.182 194.807 119.327 206.636C117.473 218.465 125.559 229.558 137.388 231.412C149.217 233.267 160.309 225.181 162.164 213.352Z" fill="#0056BC"/>
<path d="M140.75 176.06C132.94 176.06 126.51 169.92 126.15 162.11L120.22 32.65C119.68 20.94 129.03 11.16 140.75 11.16C152.47 11.16 161.82 20.95 161.28 32.65L155.35 162.11C154.99 169.91 148.56 176.06 140.75 176.06Z" fill="#0056BC"/>
<path d="M283.33 122.51C282.68 123.9 281.04 124.5 279.65 123.85C278.26 123.2 277.66 121.56 278.31 120.17C278.96 118.78 280.6 118.18 281.99 118.83C283.38 119.48 283.98 121.12 283.33 122.51Z" fill="#1E191A"/>
<path d="M283.12 116.4C281.98 115.87 281.46 114.54 281.94 113.38L289.86 94.12C290.58 92.38 292.6 91.59 294.31 92.38C296.02 93.18 296.71 95.23 295.84 96.9L286.19 115.36C285.61 116.47 284.26 116.93 283.12 116.4Z" fill="#1E191A"/>
</g>
<defs>
<linearGradient id="paint0_linear_546_19" x1="140.75" y1="220.08" x2="140.75" y2="43.29" gradientUnits="userSpaceOnUse">
<stop stop-color="#8AD3FF"/>
<stop offset="1" stop-color="#5F9CFF"/>
</linearGradient>
<linearGradient id="paint1_linear_546_19" x1="140.76" y1="173.18" x2="140.76" y2="152.73" gradientUnits="userSpaceOnUse">
<stop stop-color="#E2F4FF"/>
<stop offset="1" stop-color="#D7ECFF"/>
</linearGradient>
<linearGradient id="paint2_linear_546_19" x1="140.76" y1="128.98" x2="140.76" y2="108.95" gradientUnits="userSpaceOnUse">
<stop stop-color="#E2F4FF"/>
<stop offset="1" stop-color="#D7ECFF"/>
</linearGradient>
<linearGradient id="paint3_linear_546_19" x1="140.76" y1="87.58" x2="140.76" y2="67.77" gradientUnits="userSpaceOnUse">
<stop stop-color="#E2F4FF"/>
<stop offset="1" stop-color="#D7ECFF"/>
</linearGradient>
<linearGradient id="paint4_linear_546_19" x1="140.75" y1="220.08" x2="140.75" y2="43.29" gradientUnits="userSpaceOnUse">
<stop stop-color="#9972FF"/>
<stop offset="1" stop-color="#7F85FF"/>
</linearGradient>
<clipPath id="clip0_546_19">
<rect width="296.22" height="264.46" fill="white"/>
</clipPath>
</defs>
</svg>
