<svg width="25" height="25" viewBox="0 0 25 25" fill="none" xmlns="http://www.w3.org/2000/svg">
<g clip-path="url(#clip0_175_444)">
<path d="M9.37492 5.20833H7.29159C6.73905 5.20833 6.20915 5.42783 5.81845 5.81853C5.42775 6.20923 5.20825 6.73913 5.20825 7.29167V19.7917C5.20825 20.3442 5.42775 20.8741 5.81845 21.2648C6.20915 21.6555 6.73905 21.875 7.29159 21.875H17.7083C18.2608 21.875 18.7907 21.6555 19.1814 21.2648C19.5721 20.8741 19.7916 20.3442 19.7916 19.7917V7.29167C19.7916 6.73913 19.5721 6.20923 19.1814 5.81853C18.7907 5.42783 18.2608 5.20833 17.7083 5.20833H15.6249" fill="#0056BC"/>
<path d="M9.37492 5.20833H7.29159C6.73905 5.20833 6.20915 5.42783 5.81845 5.81853C5.42775 6.20923 5.20825 6.73913 5.20825 7.29167V19.7917C5.20825 20.3442 5.42775 20.8741 5.81845 21.2648C6.20915 21.6555 6.73905 21.875 7.29159 21.875H17.7083C18.2608 21.875 18.7907 21.6555 19.1814 21.2648C19.5721 20.8741 19.7916 20.3442 19.7916 19.7917V7.29167C19.7916 6.73913 19.5721 6.20923 19.1814 5.81853C18.7907 5.42783 18.2608 5.20833 17.7083 5.20833H15.6249" stroke="#0056BC" stroke-width="1.75" stroke-linecap="round" stroke-linejoin="round"/>
<path d="M13.5417 3.125H11.4583C10.3077 3.125 9.375 4.05774 9.375 5.20833C9.375 6.35893 10.3077 7.29167 11.4583 7.29167H13.5417C14.6923 7.29167 15.625 6.35893 15.625 5.20833C15.625 4.05774 14.6923 3.125 13.5417 3.125Z" fill="white" stroke="#0056BC" stroke-width="1.75" stroke-linecap="round" stroke-linejoin="round"/>
<path d="M9.375 17.7083V12.5" stroke="white" stroke-width="1.75" stroke-linecap="round" stroke-linejoin="round"/>
<path d="M12.5 17.7083V16.6667" stroke="white" stroke-width="1.75" stroke-linecap="round" stroke-linejoin="round"/>
<path d="M15.625 17.7083V14.5833" stroke="white" stroke-width="1.75" stroke-linecap="round" stroke-linejoin="round"/>
</g>
<defs>
<clipPath id="clip0_175_444">
<rect width="25" height="25" fill="white"/>
</clipPath>
</defs>
</svg>
