<svg width="22" height="22" viewBox="0 0 22 22" fill="none" xmlns="http://www.w3.org/2000/svg">
<path fill-rule="evenodd" clip-rule="evenodd" d="M10.7607 1.83333C15.6832 1.83333 19.6872 5.83733 19.6872 10.7598C19.6872 13.0823 18.7959 15.2004 17.3374 16.7901L20.2073 19.654C20.4759 19.9226 20.4768 20.3571 20.2082 20.6256C20.0744 20.7613 19.8975 20.8282 19.7215 20.8282C19.5464 20.8282 19.3704 20.7613 19.2356 20.6275L16.3311 17.7311C14.8032 18.9547 12.866 19.6872 10.7607 19.6872C5.83817 19.6872 1.83325 15.6823 1.83325 10.7598C1.83325 5.83733 5.83817 1.83333 10.7607 1.83333ZM10.7607 3.20833C6.59625 3.20833 3.20825 6.59542 3.20825 10.7598C3.20825 14.9242 6.59625 18.3122 10.7607 18.3122C14.9242 18.3122 18.3122 14.9242 18.3122 10.7598C18.3122 6.59542 14.9242 3.20833 10.7607 3.20833Z" fill="#576170" stroke="#576170" stroke-width="0.5"/>
</svg>
