<svg width="250" height="250" viewBox="0 0 600 484" fill="none" xmlns="http://www.w3.org/2000/svg">
<g filter="url(#filter0_iiii_1102_279)">
<circle cx="242.521" cy="241.619" r="227.357" fill="#F5F5FA"/>
</g>
<g filter="url(#filter1_dddd_1102_279)">
<circle cx="242.523" cy="241.622" r="170.518" fill="url(#paint0_radial_1102_279)"/>
</g>
<path d="M199.805 218.694C199.604 216.671 198.743 215.099 197.221 213.978C195.699 212.858 193.634 212.298 191.025 212.298C189.253 212.298 187.756 212.549 186.535 213.05C185.315 213.535 184.378 214.212 183.726 215.082C183.091 215.952 182.773 216.938 182.773 218.042C182.739 218.962 182.932 219.764 183.35 220.45C183.785 221.136 184.378 221.729 185.131 222.231C185.883 222.716 186.753 223.142 187.739 223.51C188.726 223.861 189.78 224.162 190.9 224.413L195.515 225.517C197.756 226.018 199.813 226.687 201.686 227.524C203.559 228.36 205.181 229.388 206.552 230.609C207.923 231.83 208.985 233.268 209.738 234.923C210.507 236.579 210.9 238.477 210.917 240.617C210.9 243.761 210.097 246.487 208.509 248.794C206.937 251.085 204.662 252.866 201.686 254.137C198.726 255.391 195.156 256.018 190.975 256.018C186.828 256.018 183.216 255.383 180.139 254.112C177.079 252.841 174.688 250.96 172.965 248.468C171.26 245.96 170.365 242.858 170.281 239.162H180.791C180.908 240.885 181.402 242.323 182.271 243.477C183.158 244.614 184.336 245.475 185.808 246.06C187.296 246.629 188.977 246.913 190.85 246.913C192.689 246.913 194.286 246.646 195.641 246.11C197.012 245.575 198.074 244.831 198.826 243.878C199.579 242.925 199.955 241.83 199.955 240.592C199.955 239.438 199.612 238.468 198.927 237.682C198.258 236.896 197.271 236.228 195.967 235.676C194.679 235.124 193.099 234.622 191.226 234.171L185.632 232.766C181.301 231.712 177.882 230.065 175.373 227.825C172.865 225.584 171.619 222.565 171.636 218.769C171.619 215.659 172.447 212.942 174.119 210.617C175.808 208.293 178.124 206.478 181.067 205.174C184.01 203.87 187.355 203.218 191.101 203.218C194.913 203.218 198.241 203.87 201.084 205.174C203.943 206.478 206.168 208.293 207.756 210.617C209.345 212.942 210.164 215.634 210.214 218.694H199.805ZM265.43 229.605C265.43 235.207 264.368 239.973 262.244 243.903C260.137 247.833 257.261 250.835 253.615 252.908C249.986 254.965 245.906 255.993 241.374 255.993C236.809 255.993 232.712 254.957 229.083 252.883C225.455 250.809 222.587 247.808 220.48 243.878C218.373 239.948 217.319 235.191 217.319 229.605C217.319 224.003 218.373 219.238 220.48 215.308C222.587 211.378 225.455 208.385 229.083 206.328C232.712 204.254 236.809 203.218 241.374 203.218C245.906 203.218 249.986 204.254 253.615 206.328C257.261 208.385 260.137 211.378 262.244 215.308C264.368 219.238 265.43 224.003 265.43 229.605ZM254.418 229.605C254.418 225.977 253.874 222.916 252.787 220.425C251.717 217.933 250.204 216.044 248.247 214.756C246.291 213.468 244 212.825 241.374 212.825C238.749 212.825 236.458 213.468 234.501 214.756C232.545 216.044 231.023 217.933 229.936 220.425C228.866 222.916 228.331 225.977 228.331 229.605C228.331 233.234 228.866 236.294 229.936 238.786C231.023 241.278 232.545 243.167 234.501 244.455C236.458 245.743 238.749 246.386 241.374 246.386C244 246.386 246.291 245.743 248.247 244.455C250.204 243.167 251.717 241.278 252.787 238.786C253.874 236.294 254.418 233.234 254.418 229.605ZM301.343 218.694C301.142 216.671 300.281 215.099 298.759 213.978C297.238 212.858 295.172 212.298 292.564 212.298C290.791 212.298 289.294 212.549 288.074 213.05C286.853 213.535 285.917 214.212 285.264 215.082C284.629 215.952 284.311 216.938 284.311 218.042C284.278 218.962 284.47 219.764 284.888 220.45C285.323 221.136 285.917 221.729 286.669 222.231C287.422 222.716 288.291 223.142 289.278 223.51C290.264 223.861 291.318 224.162 292.438 224.413L297.054 225.517C299.294 226.018 301.351 226.687 303.224 227.524C305.097 228.36 306.719 229.388 308.09 230.609C309.462 231.83 310.523 233.268 311.276 234.923C312.045 236.579 312.438 238.477 312.455 240.617C312.438 243.761 311.636 246.487 310.047 248.794C308.475 251.085 306.201 252.866 303.224 254.137C300.264 255.391 296.694 256.018 292.513 256.018C288.366 256.018 284.754 255.383 281.677 254.112C278.617 252.841 276.226 250.96 274.503 248.468C272.798 245.96 271.903 242.858 271.82 239.162H282.33C282.447 240.885 282.94 242.323 283.809 243.477C284.696 244.614 285.875 245.475 287.346 246.06C288.835 246.629 290.515 246.913 292.388 246.913C294.228 246.913 295.825 246.646 297.179 246.11C298.55 245.575 299.612 244.831 300.365 243.878C301.117 242.925 301.493 241.83 301.493 240.592C301.493 239.438 301.151 238.468 300.465 237.682C299.796 236.896 298.809 236.228 297.505 235.676C296.217 235.124 294.637 234.622 292.764 234.171L287.171 232.766C282.84 231.712 279.42 230.065 276.912 227.825C274.403 225.584 273.157 222.565 273.174 218.769C273.157 215.659 273.985 212.942 275.657 210.617C277.346 208.293 279.662 206.478 282.605 205.174C285.549 203.87 288.893 203.218 292.639 203.218C296.452 203.218 299.779 203.87 302.622 205.174C305.482 206.478 307.706 208.293 309.294 210.617C310.883 212.942 311.702 215.634 311.753 218.694H301.343Z" fill="white"/>
<path d="M199.805 218.694C199.604 216.671 198.743 215.099 197.221 213.978C195.699 212.858 193.634 212.298 191.025 212.298C189.253 212.298 187.756 212.549 186.535 213.05C185.315 213.535 184.378 214.212 183.726 215.082C183.091 215.952 182.773 216.938 182.773 218.042C182.739 218.962 182.932 219.764 183.35 220.45C183.785 221.136 184.378 221.729 185.131 222.231C185.883 222.716 186.753 223.142 187.739 223.51C188.726 223.861 189.78 224.162 190.9 224.413L195.515 225.517C197.756 226.018 199.813 226.687 201.686 227.524C203.559 228.36 205.181 229.388 206.552 230.609C207.923 231.83 208.985 233.268 209.738 234.923C210.507 236.579 210.9 238.477 210.917 240.617C210.9 243.761 210.097 246.487 208.509 248.794C206.937 251.085 204.662 252.866 201.686 254.137C198.726 255.391 195.156 256.018 190.975 256.018C186.828 256.018 183.216 255.383 180.139 254.112C177.079 252.841 174.688 250.96 172.965 248.468C171.26 245.96 170.365 242.858 170.281 239.162H180.791C180.908 240.885 181.402 242.323 182.271 243.477C183.158 244.614 184.336 245.475 185.808 246.06C187.296 246.629 188.977 246.913 190.85 246.913C192.689 246.913 194.286 246.646 195.641 246.11C197.012 245.575 198.074 244.831 198.826 243.878C199.579 242.925 199.955 241.83 199.955 240.592C199.955 239.438 199.612 238.468 198.927 237.682C198.258 236.896 197.271 236.228 195.967 235.676C194.679 235.124 193.099 234.622 191.226 234.171L185.632 232.766C181.301 231.712 177.882 230.065 175.373 227.825C172.865 225.584 171.619 222.565 171.636 218.769C171.619 215.659 172.447 212.942 174.119 210.617C175.808 208.293 178.124 206.478 181.067 205.174C184.01 203.87 187.355 203.218 191.101 203.218C194.913 203.218 198.241 203.87 201.084 205.174C203.943 206.478 206.168 208.293 207.756 210.617C209.345 212.942 210.164 215.634 210.214 218.694H199.805ZM265.43 229.605C265.43 235.207 264.368 239.973 262.244 243.903C260.137 247.833 257.261 250.835 253.615 252.908C249.986 254.965 245.906 255.993 241.374 255.993C236.809 255.993 232.712 254.957 229.083 252.883C225.455 250.809 222.587 247.808 220.48 243.878C218.373 239.948 217.319 235.191 217.319 229.605C217.319 224.003 218.373 219.238 220.48 215.308C222.587 211.378 225.455 208.385 229.083 206.328C232.712 204.254 236.809 203.218 241.374 203.218C245.906 203.218 249.986 204.254 253.615 206.328C257.261 208.385 260.137 211.378 262.244 215.308C264.368 219.238 265.43 224.003 265.43 229.605ZM254.418 229.605C254.418 225.977 253.874 222.916 252.787 220.425C251.717 217.933 250.204 216.044 248.247 214.756C246.291 213.468 244 212.825 241.374 212.825C238.749 212.825 236.458 213.468 234.501 214.756C232.545 216.044 231.023 217.933 229.936 220.425C228.866 222.916 228.331 225.977 228.331 229.605C228.331 233.234 228.866 236.294 229.936 238.786C231.023 241.278 232.545 243.167 234.501 244.455C236.458 245.743 238.749 246.386 241.374 246.386C244 246.386 246.291 245.743 248.247 244.455C250.204 243.167 251.717 241.278 252.787 238.786C253.874 236.294 254.418 233.234 254.418 229.605ZM301.343 218.694C301.142 216.671 300.281 215.099 298.759 213.978C297.238 212.858 295.172 212.298 292.564 212.298C290.791 212.298 289.294 212.549 288.074 213.05C286.853 213.535 285.917 214.212 285.264 215.082C284.629 215.952 284.311 216.938 284.311 218.042C284.278 218.962 284.47 219.764 284.888 220.45C285.323 221.136 285.917 221.729 286.669 222.231C287.422 222.716 288.291 223.142 289.278 223.51C290.264 223.861 291.318 224.162 292.438 224.413L297.054 225.517C299.294 226.018 301.351 226.687 303.224 227.524C305.097 228.36 306.719 229.388 308.09 230.609C309.462 231.83 310.523 233.268 311.276 234.923C312.045 236.579 312.438 238.477 312.455 240.617C312.438 243.761 311.636 246.487 310.047 248.794C308.475 251.085 306.201 252.866 303.224 254.137C300.264 255.391 296.694 256.018 292.513 256.018C288.366 256.018 284.754 255.383 281.677 254.112C278.617 252.841 276.226 250.96 274.503 248.468C272.798 245.96 271.903 242.858 271.82 239.162H282.33C282.447 240.885 282.94 242.323 283.809 243.477C284.696 244.614 285.875 245.475 287.346 246.06C288.835 246.629 290.515 246.913 292.388 246.913C294.228 246.913 295.825 246.646 297.179 246.11C298.55 245.575 299.612 244.831 300.365 243.878C301.117 242.925 301.493 241.83 301.493 240.592C301.493 239.438 301.151 238.468 300.465 237.682C299.796 236.896 298.809 236.228 297.505 235.676C296.217 235.124 294.637 234.622 292.764 234.171L287.171 232.766C282.84 231.712 279.42 230.065 276.912 227.825C274.403 225.584 273.157 222.565 273.174 218.769C273.157 215.659 273.985 212.942 275.657 210.617C277.346 208.293 279.662 206.478 282.605 205.174C285.549 203.87 288.893 203.218 292.639 203.218C296.452 203.218 299.779 203.87 302.622 205.174C305.482 206.478 307.706 208.293 309.294 210.617C310.883 212.942 311.702 215.634 311.753 218.694H301.343Z" fill="white"/>
<defs>
<filter id="filter0_iiii_1102_279" x="-8.519" y="-9.42135" width="502.081" height="502.081" filterUnits="userSpaceOnUse" color-interpolation-filters="sRGB">
<feFlood flood-opacity="0" result="BackgroundImageFix"/>
<feBlend mode="normal" in="SourceGraphic" in2="BackgroundImageFix" result="shape"/>
<feColorMatrix in="SourceAlpha" type="matrix" values="0 0 0 0 0 0 0 0 0 0 0 0 0 0 0 0 0 0 127 0" result="hardAlpha"/>
<feOffset dx="-23.6831" dy="-23.6831"/>
<feGaussianBlur stdDeviation="23.6831"/>
<feComposite in2="hardAlpha" operator="arithmetic" k2="-1" k3="1"/>
<feColorMatrix type="matrix" values="0 0 0 0 1 0 0 0 0 1 0 0 0 0 1 0 0 0 1 0"/>
<feBlend mode="normal" in2="shape" result="effect1_innerShadow_1102_279"/>
<feColorMatrix in="SourceAlpha" type="matrix" values="0 0 0 0 0 0 0 0 0 0 0 0 0 0 0 0 0 0 127 0" result="hardAlpha"/>
<feOffset dx="23.6831" dy="23.6831"/>
<feGaussianBlur stdDeviation="23.6831"/>
<feComposite in2="hardAlpha" operator="arithmetic" k2="-1" k3="1"/>
<feColorMatrix type="matrix" values="0 0 0 0 0.666667 0 0 0 0 0.666667 0 0 0 0 0.8 0 0 0 0.5 0"/>
<feBlend mode="normal" in2="effect1_innerShadow_1102_279" result="effect2_innerShadow_1102_279"/>
<feColorMatrix in="SourceAlpha" type="matrix" values="0 0 0 0 0 0 0 0 0 0 0 0 0 0 0 0 0 0 127 0" result="hardAlpha"/>
<feOffset dx="11.8415" dy="11.8415"/>
<feGaussianBlur stdDeviation="11.8415"/>
<feComposite in2="hardAlpha" operator="arithmetic" k2="-1" k3="1"/>
<feColorMatrix type="matrix" values="0 0 0 0 0.666667 0 0 0 0 0.666667 0 0 0 0 0.8 0 0 0 0.25 0"/>
<feBlend mode="normal" in2="effect2_innerShadow_1102_279" result="effect3_innerShadow_1102_279"/>
<feColorMatrix in="SourceAlpha" type="matrix" values="0 0 0 0 0 0 0 0 0 0 0 0 0 0 0 0 0 0 127 0" result="hardAlpha"/>
<feOffset dx="-11.8415" dy="-11.8415"/>
<feGaussianBlur stdDeviation="11.8415"/>
<feComposite in2="hardAlpha" operator="arithmetic" k2="-1" k3="1"/>
<feColorMatrix type="matrix" values="0 0 0 0 1 0 0 0 0 1 0 0 0 0 1 0 0 0 0.5 0"/>
<feBlend mode="normal" in2="effect3_innerShadow_1102_279" result="effect4_innerShadow_1102_279"/>
</filter>
<filter id="filter1_dddd_1102_279" x="0.955437" y="0.0543137" width="483.135" height="483.136" filterUnits="userSpaceOnUse" color-interpolation-filters="sRGB">
<feFlood flood-opacity="0" result="BackgroundImageFix"/>
<feColorMatrix in="SourceAlpha" type="matrix" values="0 0 0 0 0 0 0 0 0 0 0 0 0 0 0 0 0 0 127 0" result="hardAlpha"/>
<feOffset dx="-23.6831" dy="-23.6831"/>
<feGaussianBlur stdDeviation="23.6831"/>
<feColorMatrix type="matrix" values="0 0 0 0 1 0 0 0 0 1 0 0 0 0 1 0 0 0 1 0"/>
<feBlend mode="normal" in2="BackgroundImageFix" result="effect1_dropShadow_1102_279"/>
<feColorMatrix in="SourceAlpha" type="matrix" values="0 0 0 0 0 0 0 0 0 0 0 0 0 0 0 0 0 0 127 0" result="hardAlpha"/>
<feOffset dx="23.6831" dy="23.6831"/>
<feGaussianBlur stdDeviation="23.6831"/>
<feColorMatrix type="matrix" values="0 0 0 0 0.666667 0 0 0 0 0.666667 0 0 0 0 0.8 0 0 0 0.5 0"/>
<feBlend mode="normal" in2="effect1_dropShadow_1102_279" result="effect2_dropShadow_1102_279"/>
<feColorMatrix in="SourceAlpha" type="matrix" values="0 0 0 0 0 0 0 0 0 0 0 0 0 0 0 0 0 0 127 0" result="hardAlpha"/>
<feOffset dx="11.8415" dy="11.8415"/>
<feGaussianBlur stdDeviation="11.8415"/>
<feColorMatrix type="matrix" values="0 0 0 0 0.666667 0 0 0 0 0.666667 0 0 0 0 0.8 0 0 0 0.25 0"/>
<feBlend mode="normal" in2="effect2_dropShadow_1102_279" result="effect3_dropShadow_1102_279"/>
<feColorMatrix in="SourceAlpha" type="matrix" values="0 0 0 0 0 0 0 0 0 0 0 0 0 0 0 0 0 0 127 0" result="hardAlpha"/>
<feOffset dx="-11.8415" dy="-11.8415"/>
<feGaussianBlur stdDeviation="11.8415"/>
<feColorMatrix type="matrix" values="0 0 0 0 1 0 0 0 0 1 0 0 0 0 1 0 0 0 0.5 0"/>
<feBlend mode="normal" in2="effect3_dropShadow_1102_279" result="effect4_dropShadow_1102_279"/>
<feBlend mode="normal" in="SourceGraphic" in2="effect4_dropShadow_1102_279" result="shape"/>
</filter>
<radialGradient id="paint0_radial_1102_279" cx="0" cy="0" r="1" gradientUnits="userSpaceOnUse" gradientTransform="translate(242.523 241.622) rotate(90) scale(170.518)">
<stop stop-color="#FFAD59"/>
<stop offset="1" stop-color="#FF7E7B"/>
</radialGradient>
</defs>
</svg>
